<svg width="340" height="260" viewBox="0 0 340 260" fill="none" xmlns="http://www.w3.org/2000/svg">
<path d="M55.508 114V56.49H81.428C84.128 56.49 86.612 57.057 88.88 58.191C91.202 59.325 93.2 60.81 94.874 62.646C96.548 64.482 97.844 66.561 98.762 68.883C99.734 71.205 100.22 73.554 100.22 75.93C100.22 77.712 100.004 79.44 99.572 81.114C99.14 82.734 98.519 84.273 97.709 85.731C96.899 87.189 95.9 88.512 94.712 89.7C93.578 90.834 92.282 91.806 90.824 92.616L104.027 114H89.042L77.459 95.451H68.792V114H55.508ZM68.792 83.868H80.942C82.508 83.868 83.858 83.139 84.992 81.681C86.126 80.169 86.693 78.252 86.693 75.93C86.693 73.554 86.045 71.664 84.749 70.26C83.453 68.856 82.049 68.154 80.537 68.154H68.792V83.868ZM153.25 73.338C153.034 73.122 152.44 72.717 151.468 72.123C150.496 71.529 149.281 70.908 147.823 70.26C146.365 69.612 144.772 69.045 143.044 68.559C141.316 68.073 139.588 67.83 137.86 67.83C135.592 67.83 133.837 68.235 132.595 69.045C131.407 69.855 130.813 71.043 130.813 72.609C130.813 73.581 131.083 74.391 131.623 75.039C132.163 75.687 132.919 76.281 133.891 76.821C134.917 77.307 136.159 77.766 137.617 78.198C139.129 78.63 140.857 79.116 142.801 79.656C145.555 80.412 148.039 81.249 150.253 82.167C152.467 83.031 154.357 84.138 155.923 85.488C157.489 86.784 158.677 88.377 159.487 90.267C160.351 92.157 160.783 94.425 160.783 97.071C160.783 100.311 160.162 103.065 158.92 105.333C157.732 107.547 156.139 109.356 154.141 110.76C152.143 112.11 149.821 113.109 147.175 113.757C144.583 114.351 141.91 114.648 139.156 114.648C137.05 114.648 134.89 114.486 132.676 114.162C130.516 113.838 128.383 113.379 126.277 112.785C124.171 112.137 122.119 111.381 120.121 110.517C118.123 109.653 116.287 108.654 114.613 107.52L120.445 95.937C120.715 96.207 121.444 96.72 122.632 97.476C123.82 98.232 125.278 98.988 127.006 99.744C128.734 100.5 130.678 101.175 132.838 101.769C134.998 102.363 137.185 102.66 139.399 102.66C144.097 102.66 146.446 101.229 146.446 98.367C146.446 97.287 146.095 96.396 145.393 95.694C144.691 94.992 143.719 94.371 142.477 93.831C141.235 93.237 139.777 92.697 138.103 92.211C136.429 91.725 134.593 91.185 132.595 90.591C129.949 89.781 127.654 88.917 125.71 87.999C123.766 87.027 122.146 85.92 120.85 84.678C119.554 83.436 118.582 82.005 117.934 80.385C117.34 78.765 117.043 76.875 117.043 74.715C117.043 71.691 117.61 69.018 118.744 66.696C119.878 64.374 121.417 62.43 123.361 60.864C125.305 59.244 127.546 58.029 130.084 57.219C132.676 56.409 135.403 56.004 138.265 56.004C140.317 56.004 142.315 56.193 144.259 56.571C146.203 56.949 148.039 57.435 149.767 58.029C151.549 58.623 153.223 59.298 154.789 60.054C156.355 60.81 157.759 61.566 159.001 62.322L153.25 73.338ZM176.676 114V56.49H201.219C203.973 56.49 206.484 57.057 208.752 58.191C211.074 59.325 213.045 60.81 214.665 62.646C216.339 64.482 217.635 66.561 218.553 68.883C219.525 71.205 220.011 73.554 220.011 75.93C220.011 78.468 219.552 80.898 218.634 83.22C217.77 85.542 216.528 87.621 214.908 89.457C213.342 91.293 211.425 92.751 209.157 93.831C206.889 94.911 204.378 95.451 201.624 95.451H189.96V114H176.676ZM189.96 83.868H200.814C202.38 83.868 203.73 83.193 204.864 81.843C205.998 80.493 206.565 78.522 206.565 75.93C206.565 74.58 206.376 73.419 205.998 72.447C205.674 71.475 205.215 70.665 204.621 70.017C204.027 69.369 203.352 68.91 202.596 68.64C201.84 68.316 201.084 68.154 200.328 68.154H189.96V83.868ZM259.143 114.486C255.039 114.486 251.313 113.649 247.965 111.975C244.617 110.301 241.728 108.114 239.298 105.414C236.922 102.66 235.059 99.528 233.709 96.018C232.413 92.508 231.765 88.89 231.765 85.164C231.765 81.384 232.44 77.739 233.79 74.229C235.194 70.719 237.111 67.641 239.541 64.995C242.025 62.295 244.941 60.162 248.289 58.596C251.691 56.976 255.39 56.166 259.386 56.166C263.49 56.166 267.216 57.003 270.564 58.677C273.912 60.351 276.774 62.565 279.15 65.319C281.58 68.073 283.443 71.205 284.739 74.715C286.035 78.225 286.683 81.789 286.683 85.407C286.683 89.187 285.981 92.832 284.577 96.342C283.227 99.852 281.337 102.957 278.907 105.657C276.477 108.303 273.561 110.436 270.159 112.056C266.811 113.676 263.139 114.486 259.143 114.486ZM245.292 85.326C245.292 87.54 245.589 89.7 246.183 91.806C246.831 93.858 247.722 95.694 248.856 97.314C250.044 98.934 251.502 100.23 253.23 101.202C255.012 102.174 257.037 102.66 259.305 102.66C261.627 102.66 263.652 102.147 265.38 101.121C267.108 100.095 268.539 98.772 269.673 97.152C270.861 95.478 271.725 93.615 272.265 91.563C272.859 89.457 273.156 87.324 273.156 85.164C273.156 82.95 272.832 80.817 272.184 78.765C271.59 76.659 270.699 74.823 269.511 73.257C268.323 71.637 266.865 70.368 265.137 69.45C263.409 68.478 261.438 67.992 259.224 67.992C256.902 67.992 254.877 68.505 253.149 69.531C251.421 70.503 249.963 71.799 248.775 73.419C247.641 75.039 246.777 76.902 246.183 79.008C245.589 81.06 245.292 83.166 245.292 85.326ZM55.508 209V151.49H81.428C84.128 151.49 86.612 152.057 88.88 153.191C91.202 154.325 93.2 155.81 94.874 157.646C96.548 159.482 97.844 161.561 98.762 163.883C99.734 166.205 100.22 168.554 100.22 170.93C100.22 172.712 100.004 174.44 99.572 176.114C99.14 177.734 98.519 179.273 97.709 180.731C96.899 182.189 95.9 183.512 94.712 184.7C93.578 185.834 92.282 186.806 90.824 187.616L104.027 209H89.042L77.459 190.451H68.792V209H55.508ZM68.792 178.868H80.942C82.508 178.868 83.858 178.139 84.992 176.681C86.126 175.169 86.693 173.252 86.693 170.93C86.693 168.554 86.045 166.664 84.749 165.26C83.453 163.856 82.049 163.154 80.537 163.154H68.792V178.868ZM118.663 209V151.49H140.128C144.88 151.49 149.038 152.246 152.602 153.758C156.166 155.27 159.136 157.322 161.512 159.914C163.942 162.506 165.751 165.557 166.939 169.067C168.181 172.523 168.802 176.222 168.802 180.164C168.802 184.538 168.127 188.507 166.777 192.071C165.427 195.581 163.483 198.605 160.945 201.143C158.461 203.627 155.437 205.571 151.873 206.975C148.363 208.325 144.448 209 140.128 209H118.663ZM155.275 180.164C155.275 177.626 154.924 175.331 154.222 173.279C153.574 171.173 152.602 169.364 151.306 167.852C150.01 166.34 148.417 165.179 146.527 164.369C144.637 163.559 142.504 163.154 140.128 163.154H131.947V197.336H140.128C142.558 197.336 144.718 196.904 146.608 196.04C148.498 195.176 150.064 193.988 151.306 192.476C152.602 190.91 153.574 189.101 154.222 187.049C154.924 184.943 155.275 182.648 155.275 180.164ZM177.017 209L199.13 151.49H209.903L231.935 209H217.841L213.386 196.121H195.485L191.111 209H177.017ZM204.476 165.584L197.591 186.968H211.118L204.476 165.584ZM245.288 209V151.49H271.208C273.908 151.49 276.392 152.057 278.66 153.191C280.982 154.325 282.98 155.81 284.654 157.646C286.328 159.482 287.624 161.561 288.542 163.883C289.514 166.205 290 168.554 290 170.93C290 172.712 289.784 174.44 289.352 176.114C288.92 177.734 288.299 179.273 287.489 180.731C286.679 182.189 285.68 183.512 284.492 184.7C283.358 185.834 282.062 186.806 280.604 187.616L293.807 209H278.822L267.239 190.451H258.572V209H245.288ZM258.572 178.868H270.722C272.288 178.868 273.638 178.139 274.772 176.681C275.906 175.169 276.473 173.252 276.473 170.93C276.473 168.554 275.825 166.664 274.529 165.26C273.233 163.856 271.829 163.154 270.317 163.154H258.572V178.868Z" fill="black"/>
<line x1="340" y1="252" x2="209" y2="252" stroke="black" stroke-width="16"/>
<path d="M332 243.961L332 16" stroke="black" stroke-width="16"/>
<path d="M340 9L277 9.00001" stroke="black" stroke-width="16"/>
<line y1="8" x2="131" y2="8" stroke="black" stroke-width="16"/>
<path d="M7.9999 16.039L7.9999 244" stroke="black" stroke-width="16"/>
<path d="M0 251H63" stroke="black" stroke-width="16"/>
</svg>
